<?xml version="1.0" standalone="no"?>
<!DOCTYPE svg PUBLIC "-//W3C//DTD SVG 20010904//EN"
 "http://www.w3.org/TR/2001/REC-SVG-20010904/DTD/svg10.dtd">
<svg version="1.0" xmlns="http://www.w3.org/2000/svg"
 width="480.000000pt" height="480.000000pt" viewBox="0 0 480.000000 480.000000"
 preserveAspectRatio="xMidYMid meet">
<metadata>
Created by potrace 1.14, written by Peter Selinger 2001-2017
</metadata>
<g transform="translate(0.000000,480.000000) scale(0.100000,-0.100000)"
fill="#000000" stroke="none">
<path d="M3945 3960 c-4 -6 -16 -8 -27 -4 -14 4 -18 2 -14 -5 9 -14 43 -14 51
0 4 6 5 13 2 15 -3 3 -8 0 -12 -6z"/>
<path d="M2005 3930 c-3 -5 1 -10 9 -10 9 0 16 5 16 10 0 6 -4 10 -9 10 -6 0
-13 -4 -16 -10z"/>
<path d="M2070 3930 c0 -5 7 -10 15 -10 8 0 15 5 15 10 0 6 -7 10 -15 10 -8 0
-15 -4 -15 -10z"/>
<path d="M2056 3891 c-4 -5 -2 -12 3 -15 5 -4 12 -2 15 3 4 5 2 12 -3 15 -5 4
-12 2 -15 -3z"/>
<path d="M2030 3854 c0 -8 5 -12 10 -9 6 4 8 11 5 16 -9 14 -15 11 -15 -7z"/>
<path d="M2052 3809 c2 -6 8 -10 13 -10 5 0 11 4 13 10 2 6 -4 11 -13 11 -9 0
-15 -5 -13 -11z"/>
<path d="M2015 3771 c-6 -11 9 -23 19 -14 9 9 7 23 -3 23 -6 0 -12 -4 -16 -9z"/>
<path d="M3080 3290 c0 -284 -3 -385 -12 -400 -11 -17 -10 -23 7 -39 11 -10
31 -22 43 -26 24 -7 24 -6 18 57 -5 52 -26 647 -26 756 0 22 -5 32 -15 32 -13
0 -15 -49 -15 -380z"/>
<path d="M3228 3315 c-5 -530 -6 -490 19 -493 22 -3 22 -1 18 65 -2 37 -5 213
-5 391 0 277 -2 322 -15 322 -13 0 -15 -41 -17 -285z"/>
<path d="M2884 3576 c-5 -13 -2 -23 11 -32 25 -18 41 -18 49 2 5 13 2 15 -14
11 -15 -4 -24 1 -30 16 -8 21 -8 21 -16 3z"/>
<path d="M3027 3573 c-4 -3 -7 -170 -7 -370 0 -324 2 -363 16 -363 13 0 15 13
12 84 -2 46 0 82 5 79 8 -5 9 486 1 540 -6 36 -14 44 -27 30z m20 -255 c-3 -7
-5 -2 -5 12 0 14 2 19 5 13 2 -7 2 -19 0 -25z"/>
<path d="M1285 3560 c-3 -4 7 -11 21 -14 35 -9 39 -4 8 11 -13 6 -26 8 -29 3z"/>
<path d="M3170 3333 c0 -98 -3 -214 -6 -258 -12 -161 -5 -235 22 -235 12 0 14
36 14 223 0 256 -9 447 -22 447 -4 0 -8 -80 -8 -177z"/>
<path d="M1813 3334 c-7 -7 -12 -26 -12 -41 l1 -28 8 30 c6 27 8 28 14 10 4
-11 12 -31 17 -45 12 -30 67 -96 74 -88 3 3 -4 17 -16 32 -25 31 -18 47 10 22
15 -14 19 -14 24 -3 3 8 0 20 -6 26 -8 8 -8 11 0 11 7 0 -9 20 -35 44 -26 25
-48 43 -50 41 -2 -2 4 -17 12 -34 9 -16 16 -36 16 -43 0 -15 -36 41 -41 65 -3
13 -6 13 -16 1z"/>
<path d="M1816 3210 c7 -58 35 -125 45 -108 4 7 4 17 -2 24 -5 6 -18 37 -29
70 l-19 59 5 -45z"/>
<path d="M1940 3219 c0 -33 66 -89 105 -89 13 0 6 11 -24 40 -22 22 -41 44
-41 48 0 4 -9 8 -20 9 -11 1 -20 -3 -20 -8z"/>
<path d="M1854 3175 c4 -16 16 -39 27 -50 l20 -20 -7 30 c-3 17 -15 39 -26 50
l-20 20 6 -30z"/>
<path d="M1945 3130 c8 -38 45 -87 45 -60 0 8 3 26 7 39 4 17 3 22 -6 17 -6
-4 -8 -12 -5 -18 4 -7 2 -8 -4 -4 -7 4 -12 13 -12 20 0 8 -7 20 -16 27 -15 12
-16 10 -9 -21z"/>
<path d="M2035 3100 c3 -5 13 -10 21 -10 8 0 12 5 9 10 -3 6 -13 10 -21 10 -8
0 -12 -4 -9 -10z"/>
<path d="M1810 3090 c-1 -8 -1 -19 0 -25 1 -5 4 -30 6 -55 3 -25 8 -58 13 -75
l8 -30 12 28 c6 16 8 40 5 55 -4 20 -3 23 5 12 21 -30 23 17 2 51 -16 26 -21
29 -21 15 0 -24 -16 -10 -23 19 -3 13 -5 15 -7 5z"/>
<path d="M1576 3046 c4 -25 2 -52 -5 -62 -8 -16 -11 -9 -12 36 l-1 55 -9 -43
c-4 -23 -11 -46 -14 -52 -3 -5 3 -13 12 -19 10 -6 14 -11 8 -11 -5 0 -3 -5 5
-10 12 -8 12 -10 1 -10 -19 0 -40 30 -42 60 0 16 -5 7 -13 -25 -7 -27 -18 -63
-25 -78 -14 -35 -14 -40 -1 -32 6 4 10 -9 10 -32 -1 -35 -2 -37 -15 -19 -9 12
-22 17 -39 14 -16 -3 -27 0 -31 10 -4 11 -11 5 -28 -19 -13 -19 -29 -34 -36
-34 -8 0 -16 -10 -17 -22 -5 -29 11 -29 56 -2 19 12 46 22 60 24 14 1 55 5 92
9 64 8 68 7 115 -25 47 -33 48 -33 31 -7 -22 33 -22 38 -4 38 21 0 31 21 15
31 -9 6 -10 9 -2 9 6 0 18 -7 27 -15 20 -20 36 -18 67 8 29 27 42 54 29 62 -6
4 -10 15 -10 26 0 11 -4 18 -9 14 -5 -3 -12 -1 -16 5 -4 6 -11 8 -16 5 -15
-10 -10 7 8 27 16 18 16 18 0 12 -13 -5 -16 -2 -10 12 5 14 3 16 -11 11 -10
-4 -20 -7 -22 -7 -2 0 -4 -35 -4 -79 0 -77 0 -78 -23 -74 -18 4 -28 17 -40 51
-9 26 -28 82 -43 125 -29 85 -47 101 -38 33z"/>
<path d="M2975 2998 c-4 -51 -8 -103 -8 -115 -1 -13 -4 -23 -8 -23 -12 0 -3
-34 10 -38 6 -2 18 2 26 8 17 14 21 55 4 45 -7 -5 -9 27 -8 99 1 58 0 108 -3
111 -3 3 -8 -36 -13 -87z"/>
<path d="M1730 3055 c0 -14 4 -25 9 -25 4 0 6 11 3 25 -2 14 -6 25 -8 25 -2 0
-4 -11 -4 -25z"/>
<path d="M1948 3025 c-11 -51 22 -204 48 -226 9 -7 19 -7 34 1 11 6 34 9 50 6
30 -4 49 7 30 19 -6 4 -7 11 -4 17 5 7 2 8 -6 3 -12 -7 -59 38 -60 58 0 5 -11
23 -25 41 -14 18 -25 38 -25 44 0 6 -5 14 -11 18 -8 5 -10 -1 -7 -20 3 -15 2
-24 -3 -19 -4 4 -9 26 -11 48 -3 39 -3 39 -10 10z"/>
<path d="M1386 3023 c-4 -9 -3 -20 2 -25 6 -6 11 1 14 16 6 29 -6 35 -16 9z"/>
<path d="M1342 2995 c-17 -37 -14 -45 4 -12 9 16 14 31 11 33 -2 2 -9 -7 -15
-21z"/>
<path d="M2240 3013 c0 -10 69 -98 99 -127 l31 -30 0 27 c0 28 -65 126 -85
128 -5 0 -18 2 -27 4 -10 2 -18 1 -18 -2z"/>
<path d="M2415 3001 c-3 -5 -1 -12 5 -16 12 -7 30 2 30 16 0 12 -27 12 -35 0z"/>
<path d="M2502 2998 c6 -18 28 -21 28 -4 0 9 -7 16 -16 16 -9 0 -14 -5 -12
-12z"/>
<path d="M1255 2904 c-27 -36 -65 -79 -83 -95 -23 -20 -28 -29 -16 -29 45 0
174 95 174 128 -1 15 -2 15 -14 -1 -9 -12 -16 -14 -21 -7 -4 6 -3 16 3 23 13
18 22 47 14 47 -4 -1 -29 -30 -57 -66z"/>
<path d="M1367 2963 c-4 -3 -7 -15 -7 -26 0 -16 3 -17 15 -7 8 7 15 19 15 26
0 15 -12 19 -23 7z"/>
<path d="M2040 2950 c0 -19 3 -21 12 -12 9 9 9 15 0 24 -9 9 -12 7 -12 -12z"/>
<path d="M2457 2963 c-12 -11 -8 -23 8 -23 8 0 15 7 15 15 0 16 -12 20 -23 8z"/>
<path d="M1775 2950 c-3 -5 -1 -10 4 -10 6 0 11 5 11 10 0 6 -2 10 -4 10 -3 0
-8 -4 -11 -10z"/>
<path d="M2550 2950 c0 -5 5 -10 10 -10 6 0 10 5 10 10 0 6 -4 10 -10 10 -5 0
-10 -4 -10 -10z"/>
<path d="M2176 2938 c7 -20 1 -22 -26 -8 -17 9 -17 7 -6 -41 6 -28 16 -51 21
-51 6 0 18 16 28 37 18 37 18 38 -3 59 -17 17 -20 18 -14 4z"/>
<path d="M2416 2941 c-4 -5 -2 -12 3 -15 5 -4 12 -2 15 3 4 5 2 12 -3 15 -5 4
-12 2 -15 -3z"/>
<path d="M2526 2933 c-11 -11 -6 -23 9 -23 8 0 15 4 15 9 0 13 -16 22 -24 14z"/>
<path d="M1418 2899 c-27 -46 -22 -58 7 -19 25 35 31 50 18 50 -5 0 -16 -14
-25 -31z"/>
<path d="M1467 2923 c-4 -3 -7 -13 -7 -22 1 -13 3 -13 11 2 11 19 8 33 -4 20z"/>
<path d="M1900 2890 c0 -5 5 -10 10 -10 6 0 10 5 10 10 0 6 -4 10 -10 10 -5 0
-10 -4 -10 -10z"/>
<path d="M2390 2876 c0 -19 6 -25 30 -28 39 -6 42 23 5 40 -34 16 -35 16 -35
-12z"/>
<path d="M1930 2850 c0 -5 5 -10 11 -10 5 0 7 5 4 10 -3 6 -8 10 -11 10 -2 0
-4 -4 -4 -10z"/>
<path d="M1885 2840 c3 -5 8 -10 11 -10 2 0 4 5 4 10 0 6 -5 10 -11 10 -5 0
-7 -4 -4 -10z"/>
<path d="M2671 2834 c0 -11 3 -14 6 -6 3 7 2 16 -1 19 -3 4 -6 -2 -5 -13z"/>
<path d="M2902 2830 c-7 -11 -12 -47 -12 -81 0 -54 2 -60 18 -54 9 4 35 9 57
12 22 2 48 5 57 7 11 3 15 -1 11 -10 -3 -10 3 -14 19 -14 14 0 27 3 31 6 11
11 -5 34 -24 34 -11 0 -19 7 -19 18 0 19 -47 27 -66 11 -7 -6 -16 -4 -24 6 -7
9 -19 14 -26 11 -19 -7 -28 27 -10 39 8 6 11 16 7 23 -4 8 -11 5 -19 -8z"/>
<path d="M2763 2780 c0 -25 2 -35 4 -22 2 12 2 32 0 45 -2 12 -4 2 -4 -23z"/>
<path d="M1244 2764 c-18 -14 -18 -15 4 -4 12 6 22 13 22 15 0 8 -5 6 -26 -11z"/>
<path d="M1475 2740 c3 -5 8 -10 11 -10 2 0 4 5 4 10 0 6 -5 10 -11 10 -5 0
-7 -4 -4 -10z"/>
<path d="M1507 2743 c-3 -5 8 -20 24 -34 27 -25 29 -25 44 -9 14 16 14 19 -9
34 -27 17 -52 21 -59 9z"/>
<path d="M2825 2740 c-3 -5 -36 -10 -72 -10 -54 0 -64 -3 -59 -15 3 -8 2 -15
-3 -15 -5 0 -11 -8 -14 -18 -3 -15 1 -19 24 -18 16 1 29 4 29 7 0 4 19 3 42
-2 25 -6 44 -6 47 -1 10 15 51 25 51 12 0 -6 -4 -8 -10 -5 -5 3 -10 -1 -10
-11 0 -13 3 -14 15 -4 17 14 20 40 5 40 -5 0 -10 6 -10 14 0 19 -26 40 -35 26z"/>
<path d="M2513 2725 c-16 -12 -16 -15 -3 -28 17 -16 80 -5 80 14 0 6 -7 9 -15
5 -8 -3 -15 -1 -15 3 0 16 -28 20 -47 6z"/>
<path d="M3705 2711 c-6 -20 -36 -24 -47 -7 -4 6 -8 -1 -8 -16 0 -33 39 -63
70 -53 43 14 50 77 10 88 -13 3 -21 -1 -25 -12z"/>
<path d="M2112 2707 c-7 -8 -7 -18 -2 -27 8 -13 11 -13 26 2 9 9 13 21 10 27
-9 15 -21 14 -34 -2z"/>
<path d="M3233 2693 c15 -2 37 -2 50 0 12 2 0 4 -28 4 -27 0 -38 -2 -22 -4z"/>
<path d="M2155 2670 c-9 -15 4 -30 26 -30 12 0 19 7 19 20 0 21 -33 29 -45 10z"/>
<path d="M2544 2669 c-10 -17 13 -36 27 -22 12 12 4 33 -11 33 -5 0 -12 -5
-16 -11z"/>
<path d="M880 2661 c0 -6 10 -17 21 -25 21 -14 21 -16 5 -40 l-16 -26 40 0
c38 0 40 1 26 16 -20 20 -21 50 -1 58 30 11 14 26 -30 26 -25 0 -45 -4 -45 -9z"/>
<path d="M2115 2651 c-7 -12 12 -24 25 -16 11 7 4 25 -10 25 -5 0 -11 -4 -15
-9z"/>
<path d="M3484 2636 c11 -9 24 -16 30 -16 12 0 7 5 -24 19 -24 11 -24 11 -6
-3z"/>
<path d="M2922 2618 c-29 -12 -51 -22 -49 -24 6 -6 96 27 103 37 6 11 10 12
-54 -13z"/>
<path d="M2245 2622 c-11 -4 -29 -13 -40 -19 -20 -13 -20 -13 -1 -28 26 -20
46 -19 46 2 0 9 7 25 17 35 17 19 12 21 -22 10z"/>
<path d="M2575 2620 c-4 -6 -3 -16 3 -22 6 -6 12 -6 17 2 4 6 3 16 -3 22 -6 6
-12 6 -17 -2z"/>
<path d="M2785 2590 c-27 -16 -45 -30 -40 -30 6 0 33 14 60 30 28 16 46 30 40
30 -5 0 -32 -14 -60 -30z"/>
<path d="M3141 2603 c-11 -12 -47 -18 -79 -14 -8 1 -19 -3 -27 -9 -7 -6 -40
-21 -74 -35 -34 -13 -84 -40 -111 -60 -32 -23 -66 -39 -93 -43 -23 -3 -70 -20
-105 -39 -46 -24 -77 -33 -111 -33 -26 0 -51 -4 -57 -9 -5 -5 -23 -12 -41 -16
-29 -6 -31 -4 -26 17 4 20 3 21 -9 8 -18 -20 -27 -22 -143 -22 -112 -1 -264
22 -352 53 -32 11 -76 22 -98 25 -21 3 -50 11 -65 19 -37 20 -146 46 -215 52
-77 7 -184 -11 -258 -43 -47 -21 -67 -24 -110 -19 -32 4 -69 1 -97 -7 l-44
-14 36 -17 c45 -21 161 -29 212 -14 35 10 40 9 56 -11 22 -27 58 -36 94 -22
17 6 33 7 40 1 16 -13 209 -14 201 -1 -3 5 -13 10 -21 10 -22 0 -17 15 10 30
32 16 158 -1 225 -31 25 -11 55 -22 66 -25 75 -14 232 -34 270 -34 25 0 45 -5
45 -10 0 -19 48 -29 137 -31 106 -3 171 15 184 48 6 16 17 23 34 23 27 0 155
57 155 69 0 10 96 72 107 69 7 -2 36 4 98 18 16 4 14 1 -5 -10 -21 -13 -22
-15 -7 -16 11 0 30 9 43 19 22 17 23 20 7 24 -17 4 -17 5 0 6 9 0 17 5 17 9 0
4 10 9 23 9 12 1 31 4 43 7 13 4 21 1 21 -8 0 -8 -6 -12 -12 -10 -6 3 -22 0
-36 -6 -20 -9 -16 -10 24 -6 27 2 54 9 60 16 10 10 8 11 -8 6 -18 -6 -18 -5
-5 8 17 17 89 24 109 11 8 -4 40 -9 72 -9 32 -1 62 -6 66 -10 4 -5 2 -6 -4 -2
-7 4 -13 2 -13 -3 0 -17 28 -13 38 5 7 13 13 14 31 5 11 -7 21 -16 21 -20 0
-13 -47 -22 -76 -15 -19 5 -25 4 -20 -5 14 -22 143 -5 138 18 -2 9 4 10 20 5
49 -15 52 -15 26 0 -15 9 -42 18 -61 20 -34 5 -63 17 -137 56 -44 23 -191 32
-209 13z m-766 -323 c8 -13 -65 -13 -85 0 -11 7 -2 10 32 10 26 0 50 -4 53
-10z m52 -6 c-3 -3 -12 -4 -19 -1 -8 3 -5 6 6 6 11 1 17 -2 13 -5z m60 0 c-3
-3 -12 -4 -19 -1 -8 3 -5 6 6 6 11 1 17 -2 13 -5z"/>
<path d="M2532 2598 c6 -18 28 -21 28 -4 0 9 -7 16 -16 16 -9 0 -14 -5 -12
-12z"/>
<path d="M1548 2593 c6 -2 18 -2 25 0 6 3 1 5 -13 5 -14 0 -19 -2 -12 -5z"/>
<path d="M1645 2570 c28 -10 57 -18 65 -18 8 0 -7 8 -35 18 -27 10 -57 18 -65
18 -8 0 8 -8 35 -18z"/>
<path d="M2719 2510 l-24 -21 33 16 c31 15 41 25 23 25 -5 0 -19 -9 -32 -20z"/>
<path d="M1904 2501 c13 -20 87 -51 121 -50 25 1 22 3 -13 10 -24 4 -60 18
-79 31 -20 12 -33 16 -29 9z"/>
<path d="M3202 2498 c16 -10 45 -10 51 0 3 4 -10 7 -29 8 -21 0 -30 -3 -22 -8z"/>
<path d="M3738 2503 c7 -3 16 -2 19 1 4 3 -2 6 -13 5 -11 0 -14 -3 -6 -6z"/>
<path d="M3777 2493 c3 -8 11 -10 21 -4 10 4 24 11 32 14 8 2 -1 4 -21 3 -24
-1 -35 -5 -32 -13z"/>
<path d="M2325 2481 c-3 -5 -1 -12 5 -16 5 -3 10 1 10 9 0 18 -6 21 -15 7z"/>
<path d="M3020 2470 c-12 -8 -9 -10 12 -10 15 0 30 5 33 10 8 13 -25 13 -45 0z"/>
<path d="M3498 2473 c6 -2 18 -2 25 0 6 3 1 5 -13 5 -14 0 -19 -2 -12 -5z"/>
<path d="M3068 2421 c-31 -10 -72 -28 -91 -40 -19 -12 -52 -28 -73 -35 -37
-13 -35 -14 56 -11 l95 3 -40 -18 c-347 -162 -476 -200 -677 -200 -107 0 -128
2 -128 15 0 8 -2 15 -4 15 -2 0 -97 34 -212 75 -115 41 -222 75 -239 76 -25 0
-27 2 -10 9 18 7 18 9 3 15 -18 7 -41 -2 -34 -13 2 -4 -75 -7 -172 -7 -183 -1
-259 -13 -248 -40 7 -20 -15 -42 -59 -56 -50 -15 -30 -24 22 -10 21 6 52 11
68 11 l30 -1 -32 -14 c-35 -15 -46 -30 -15 -21 9 3 40 8 67 11 28 3 67 8 88
11 42 7 314 -13 366 -27 19 -4 30 -4 25 0 -5 5 -42 16 -83 25 -98 22 -120 35
-60 36 25 0 73 -11 109 -25 35 -14 65 -23 68 -21 2 3 -22 18 -54 35 -33 16
-56 30 -52 31 16 1 394 -112 403 -121 14 -14 -18 -11 -56 5 -39 16 -181 47
-188 41 -5 -5 -4 -6 119 -40 52 -15 127 -29 165 -31 39 -2 93 -8 120 -13 l50
-9 -65 -2 -65 -2 55 -10 c54 -9 107 -4 259 22 73 12 130 38 112 49 -19 12 6
27 77 46 75 21 93 13 30 -14 -25 -10 -48 -27 -52 -36 -6 -16 -1 -17 46 -11 29
4 91 18 138 32 47 14 138 31 202 38 109 11 141 11 320 -8 38 -4 46 -2 42 9 -9
23 36 28 133 16 48 -6 106 -11 128 -11 41 1 85 -3 85 -6 0 -2 -8 -10 -17 -20
-16 -16 -16 -16 7 -9 30 10 109 10 138 1 12 -4 22 -5 22 -3 0 3 -34 17 -75 32
-41 15 -75 31 -75 35 0 4 15 11 34 14 39 7 59 27 81 79 12 29 12 37 2 37 -7 0
-29 9 -50 20 -42 23 -80 25 -178 8 -55 -9 -81 -8 -125 2 -30 7 -50 16 -44 20
7 4 -10 5 -37 3 -26 -3 -83 2 -125 11 -104 22 -257 20 -330 -3z"/>
<path d="M1068 2353 c7 -3 16 -2 19 1 4 3 -2 6 -13 5 -11 0 -14 -3 -6 -6z"/>
<path d="M2795 2350 c3 -5 11 -10 16 -10 6 0 7 5 4 10 -3 6 -11 10 -16 10 -6
0 -7 -4 -4 -10z"/>
<path d="M1118 2343 c6 -2 18 -2 25 0 6 3 1 5 -13 5 -14 0 -19 -2 -12 -5z"/>
<path d="M1848 2333 c7 -3 16 -2 19 1 4 3 -2 6 -13 5 -11 0 -14 -3 -6 -6z"/>
<path d="M2758 2333 c7 -3 16 -2 19 1 4 3 -2 6 -13 5 -11 0 -14 -3 -6 -6z"/>
<path d="M3988 2297 l-18 -42 30 35 c32 38 36 50 18 50 -7 0 -21 -19 -30 -43z"/>
<path d="M1235 2310 c3 -5 10 -10 16 -10 5 0 9 5 9 10 0 6 -7 10 -16 10 -8 0
-12 -4 -9 -10z"/>
<path d="M2771 2310 c-18 -4 -36 -13 -40 -18 -4 -7 -20 -7 -48 1 -38 10 -45 9
-80 -16 -57 -39 -117 -57 -193 -57 -56 0 -78 5 -124 30 -31 16 -54 25 -51 21
3 -5 0 -11 -7 -13 -6 -2 8 -14 33 -26 24 -11 38 -21 31 -22 -7 0 -26 7 -42 15
-33 17 -43 2 -13 -20 15 -11 14 -12 -11 -8 -49 10 -21 -13 40 -32 64 -20 225
-17 260 4 16 10 13 11 -21 6 -22 -3 -69 -7 -105 -10 -64 -4 -64 -4 -13 4 79
13 103 20 103 31 0 6 14 10 31 10 16 0 28 -4 24 -9 -10 -17 11 -20 49 -7 42
15 34 30 -11 21 -15 -3 -5 4 22 14 28 11 61 20 75 20 l25 0 -25 -15 -25 -15
25 7 c14 4 35 17 46 29 12 13 35 30 53 39 17 9 31 19 31 21 0 3 -1 5 -2 4 -2
-1 -18 -5 -37 -9z m-324 -107 c-8 -7 -119 -5 -126 3 -2 2 26 4 64 4 38 0 65
-3 62 -7z"/>
<path d="M4060 2310 c0 -4 6 -13 14 -19 10 -9 16 -8 26 4 7 8 11 15 9 16 -23
5 -49 4 -49 -1z"/>
<path d="M1288 2303 c6 -2 18 -2 25 0 6 3 1 5 -13 5 -14 0 -19 -2 -12 -5z"/>
<path d="M830 2290 c0 -5 7 -10 15 -10 8 0 15 5 15 10 0 6 -7 10 -15 10 -8 0
-15 -4 -15 -10z"/>
<path d="M2836 2292 c-2 -4 4 -8 14 -8 10 0 16 4 14 8 -3 4 -9 8 -14 8 -5 0
-11 -4 -14 -8z"/>
<path d="M4161 2288 c-1 -10 6 -18 14 -18 8 0 15 5 15 11 0 5 -4 8 -9 5 -5 -4
-12 0 -14 6 -3 8 -6 6 -6 -4z"/>
<path d="M880 2280 c0 -5 5 -10 10 -10 6 0 10 5 10 10 0 6 -4 10 -10 10 -5 0
-10 -4 -10 -10z"/>
<path d="M2010 2269 c0 -5 5 -7 10 -4 6 3 10 8 10 11 0 2 -4 4 -10 4 -5 0 -10
-5 -10 -11z"/>
<path d="M2045 2260 c3 -5 8 -10 11 -10 2 0 4 5 4 10 0 6 -5 10 -11 10 -5 0
-7 -4 -4 -10z"/>
<path d="M2075 2249 c-7 -11 3 -16 53 -24 24 -4 42 -3 42 2 0 12 -89 33 -95
22z"/>
<path d="M4030 2250 c20 -13 47 -13 55 0 4 6 -9 10 -32 10 -28 0 -34 -3 -23
-10z"/>
<path d="M4090 2233 l-35 -14 39 5 c22 3 44 10 50 16 14 14 -10 11 -54 -7z"/>
<path d="M3963 2234 c-27 -11 -11 -19 37 -19 28 0 50 3 50 7 0 5 -8 8 -17 8
-10 0 -27 2 -38 5 -11 2 -26 2 -32 -1z"/>
<path d="M3915 2220 c-3 -5 1 -10 9 -10 9 0 16 5 16 10 0 6 -4 10 -9 10 -6 0
-13 -4 -16 -10z"/>
<path d="M4150 2204 c0 -17 11 -18 33 -1 16 11 15 12 -8 13 -15 1 -25 -3 -25
-12z"/>
<path d="M1051 2197 c-13 -17 10 -54 27 -43 19 11 14 24 -10 29 l-23 4 23 2
c13 0 20 6 17 11 -8 14 -20 13 -34 -3z"/>
<path d="M4058 2193 c7 -3 16 -2 19 1 4 3 -2 6 -13 5 -11 0 -14 -3 -6 -6z"/>
<path d="M845 2170 c-3 -5 -2 -10 4 -10 5 0 13 5 16 10 3 6 2 10 -4 10 -5 0
-13 -4 -16 -10z"/>
<path d="M1415 2159 c-27 -5 -63 -13 -80 -17 -29 -9 -27 -10 41 -31 74 -22
144 -28 144 -12 0 5 -19 7 -42 5 l-43 -5 52 23 c57 25 67 38 29 38 -13 0 -30
2 -38 4 -7 2 -35 0 -63 -5z"/>
<path d="M3075 2163 c-11 -2 -92 -24 -180 -49 -88 -24 -205 -51 -259 -59 -56
-8 -106 -21 -116 -30 -9 -8 -20 -12 -23 -8 -4 3 -7 1 -7 -5 0 -15 -32 -16 -46
-2 -8 8 -15 6 -24 -5 -16 -20 -37 -19 -48 1 -6 11 -14 14 -23 9 -26 -17 -123
-5 -159 19 -21 14 -71 30 -125 40 -49 10 -118 27 -153 38 -35 11 -65 18 -68
15 -9 -9 6 -27 22 -27 16 0 19 -16 4 -25 -5 -3 -10 -11 -10 -16 0 -6 4 -8 9
-5 5 4 11 2 13 -2 1 -5 23 -12 48 -16 34 -5 41 -4 30 5 -13 9 -13 10 2 6 9 -3
33 -9 53 -13 20 -3 33 -9 30 -12 -8 -8 53 -32 80 -32 13 0 36 -5 52 -12 15 -6
31 -11 36 -10 4 1 7 -3 7 -8 0 -6 -8 -10 -17 -11 -10 0 14 -9 52 -20 47 -12
85 -17 114 -13 28 4 42 3 38 -3 -4 -6 22 -11 67 -11 61 -2 78 2 100 19 14 11
26 29 26 40 0 15 7 19 33 19 18 0 42 -7 53 -16 13 -11 14 -14 3 -11 -9 3 -16
0 -16 -6 0 -8 20 -11 56 -11 l56 2 -50 -8 c-46 -8 -45 -8 24 -6 44 1 76 6 78
13 8 24 41 53 55 48 15 -6 86 29 99 48 4 6 14 5 25 -1 21 -12 64 11 64 35 0
11 4 13 13 5 6 -5 23 -13 36 -17 17 -5 22 -4 16 5 -6 10 1 11 29 6 32 -6 36
-5 36 14 0 22 25 28 34 8 3 -9 8 -8 16 5 11 18 12 18 33 0 11 -10 17 -12 13
-5 -4 7 -2 12 4 12 7 0 10 7 6 15 -11 29 14 15 30 -17 9 -18 23 -41 32 -50 8
-10 12 -18 9 -18 -3 0 0 -12 8 -26 7 -15 12 -34 10 -44 -3 -14 2 -17 18 -12
12 2 30 12 40 20 9 8 17 12 17 7 0 -4 6 -2 13 4 8 6 25 8 43 3 16 -5 34 -8 39
-7 17 1 51 24 37 25 -28 0 -1 17 29 18 17 0 37 6 42 11 6 6 18 11 26 11 8 0
11 -3 8 -7 -4 -4 7 -13 25 -21 33 -14 33 -15 9 -21 -14 -4 -26 -12 -29 -19 -3
-9 2 -10 20 -3 12 5 40 13 62 16 27 4 35 10 28 17 -16 16 -3 38 23 38 27 0 42
-16 23 -23 -7 -3 9 -6 35 -6 26 -1 63 -7 81 -15 40 -17 79 -3 84 30 4 29 -25
51 -83 62 -27 5 -98 22 -156 38 -101 27 -109 28 -170 15 -35 -8 -108 -14 -161
-15 -85 0 -101 2 -127 22 -28 20 -41 22 -158 21 -70 -1 -137 -3 -148 -6z
m-500 -233 c-3 -5 -12 -10 -18 -10 -7 0 -6 4 3 10 19 12 23 12 15 0z"/>
<path d="M4188 2153 c7 -3 16 -2 19 1 4 3 -2 6 -13 5 -11 0 -14 -3 -6 -6z"/>
<path d="M966 2131 c-7 -11 22 -23 35 -15 5 3 9 9 9 15 0 12 -37 12 -44 0z"/>
<path d="M1280 2105 c7 -8 20 -15 29 -15 13 1 13 3 -3 15 -26 19 -42 19 -26 0z"/>
<path d="M1570 2109 c0 -5 5 -7 10 -4 6 3 10 8 10 11 0 2 -4 4 -10 4 -5 0 -10
-5 -10 -11z"/>
<path d="M1135 2080 c-4 -6 5 -10 19 -10 14 0 26 5 26 10 0 6 -9 10 -19 10
-11 0 -23 -4 -26 -10z"/>
<path d="M1404 2076 c13 -11 38 -16 75 -15 l56 2 -61 7 c-33 4 -67 10 -75 14
-8 4 -5 0 5 -8z"/>
<path d="M1595 2070 c-3 -5 -1 -10 4 -10 6 0 11 5 11 10 0 6 -2 10 -4 10 -3 0
-8 -4 -11 -10z"/>
<path d="M1384 2036 c14 -11 38 -16 80 -15 l61 2 -65 7 c-36 3 -72 10 -80 14
-8 4 -6 0 4 -8z"/>
<path d="M1203 2033 c9 -2 23 -2 30 0 6 3 -1 5 -18 5 -16 0 -22 -2 -12 -5z"/>
<path d="M1300 2036 c0 -2 8 -10 18 -17 15 -13 16 -12 3 4 -13 16 -21 21 -21
13z"/>
<path d="M1250 2026 c0 -2 8 -10 18 -17 15 -13 16 -12 3 4 -13 16 -21 21 -21
13z"/>
<path d="M3667 1998 c6 -11 61 -10 67 0 2 4 -13 8 -34 7 -21 0 -36 -3 -33 -7z"/>
<path d="M266 1968 c15 -90 70 -294 101 -378 127 -342 402 -710 641 -856 42
-26 106 -71 142 -100 119 -96 226 -134 318 -113 74 16 112 4 199 -64 158 -125
294 -177 457 -177 128 0 204 19 403 99 214 85 294 96 428 55 27 -7 76 -14 110
-14 112 0 188 52 376 258 87 95 141 120 296 138 165 19 224 58 268 177 10 27
41 79 68 115 27 37 65 101 84 142 26 55 54 95 107 150 146 150 237 341 260
543 l6 57 -220 0 c-134 0 -220 -4 -220 -10 0 -19 -87 -59 -154 -70 -38 -6 -96
-22 -130 -37 -37 -15 -88 -28 -129 -31 -59 -4 -72 -2 -97 16 -24 18 -39 21
-103 18 -41 -2 -85 -10 -97 -16 -29 -16 -194 -3 -234 17 l-29 15 24 20 c20 16
20 17 3 9 -15 -7 -24 -7 -32 1 -9 9 -12 9 -12 -1 0 -11 -3 -11 -14 -2 -10 8
-30 10 -61 6 -25 -4 -66 -8 -91 -9 -39 -1 -49 -6 -77 -40 -30 -35 -37 -38
-109 -46 -42 -5 -101 -16 -130 -25 -29 -9 -103 -19 -163 -22 -99 -5 -121 -2
-207 21 -53 14 -107 26 -122 26 -14 0 -60 14 -103 32 -72 29 -87 32 -198 32
-66 1 -174 -5 -240 -13 -193 -22 -219 -20 -263 18 -63 54 -115 73 -180 67
-204 -19 -197 -19 -247 3 -31 13 -66 21 -99 20 -28 -1 -41 -4 -28 -6 12 -2 22
-11 22 -19 0 -8 5 -12 10 -9 5 3 10 2 10 -4 0 -18 -40 -33 -71 -26 -16 4 -39
20 -51 36 l-22 29 -203 0 -202 0 5 -32z m344 -18 c0 -5 -4 -10 -9 -10 -6 0
-13 5 -16 10 -3 6 1 10 9 10 9 0 16 -4 16 -10z m555 -10 c3 -5 -1 -10 -10 -10
-9 0 -13 5 -10 10 3 6 8 10 10 10 2 0 7 -4 10 -10z m-38 -31 c31 -15 48 -31
58 -56 18 -42 20 -125 4 -156 -14 -26 -70 -87 -80 -87 -5 0 3 12 16 26 14 15
25 32 24 38 0 6 -7 1 -16 -11 -8 -13 -24 -23 -35 -23 -18 0 -19 2 -7 17 12 14
10 14 -13 -1 -16 -10 -28 -22 -28 -25 0 -13 -112 7 -121 20 -4 7 -6 16 -4 19
1 3 -3 11 -11 18 -17 15 -17 12 -4 -25 9 -24 8 -26 -3 -11 -8 10 -17 14 -22
10 -4 -4 -4 4 -1 18 5 18 5 21 -3 11 -10 -16 -16 -1 -24 64 -3 24 -4 22 -5
-10 -2 -44 25 -97 57 -115 12 -6 21 -17 21 -25 0 -7 6 -16 13 -19 6 -3 2 -3
-10 0 -41 10 -24 -17 24 -38 63 -28 176 -22 226 12 50 34 88 102 80 142 -3 18
-9 35 -12 38 -3 3 -11 19 -17 37 l-12 31 45 7 c37 5 49 3 67 -14 21 -20 22
-20 89 -2 58 15 75 16 115 5 34 -8 47 -16 45 -29 -1 -11 4 -14 15 -10 10 4 58
13 107 21 50 7 106 18 125 24 19 5 57 10 84 10 27 0 65 5 86 11 51 16 145 -10
147 -41 2 -22 -12 -27 -23 -8 -5 8 -11 6 -20 -6 -8 -11 -14 -13 -19 -7 -9 16
-35 13 -35 -2 0 -17 34 -57 48 -57 6 0 12 5 14 10 2 6 14 13 28 16 74 18 89
16 184 -26 70 -31 103 -40 122 -36 15 4 47 0 76 -10 34 -11 63 -14 96 -9 26 3
72 6 102 6 39 -1 85 10 160 36 100 36 110 38 230 37 103 0 143 -5 229 -28 147
-38 256 -50 328 -36 83 17 91 27 48 57 -38 26 -41 46 -9 51 15 3 17 1 7 -9
-10 -10 -5 -17 22 -36 50 -34 60 -94 19 -110 -9 -3 -25 -1 -35 5 -11 7 -58 12
-110 12 -69 0 -124 8 -223 32 -114 27 -149 32 -271 32 -125 1 -147 -2 -203
-23 -43 -16 -59 -27 -50 -32 16 -11 13 -11 -107 -14 -49 -2 -113 -6 -141 -10
-36 -5 -67 -3 -100 8 -27 8 -68 13 -91 12 -24 -1 -43 2 -43 5 0 12 -120 62
-161 67 -31 5 -47 0 -79 -21 -22 -14 -40 -32 -40 -40 0 -7 -7 -19 -16 -27 -14
-11 -13 -15 8 -31 29 -22 44 -22 88 2 l35 19 -35 2 -35 1 30 8 c48 12 77 12
69 -1 -5 -9 1 -10 22 -5 33 9 34 9 54 7 13 -1 13 -2 0 -11 -13 -9 -13 -11 0
-20 8 -5 29 -10 45 -10 17 0 36 -4 42 -8 16 -10 24 -70 10 -79 -6 -4 -7 -1 -2
8 8 12 6 12 -8 1 -14 -12 -14 -16 -2 -28 8 -8 12 -25 9 -41 -7 -38 -12 -40
-23 -12 l-10 24 0 -23 c-1 -14 -10 -26 -25 -32 -13 -4 -33 -25 -46 -44 -20
-33 -31 -41 -52 -37 -5 0 -8 -4 -8 -10 0 -5 -4 -8 -9 -4 -6 3 -15 -3 -21 -14
-6 -11 -25 -23 -45 -27 -20 -3 -35 -12 -35 -20 0 -21 -28 -17 -40 7 -7 11 -9
23 -6 26 3 3 -2 12 -11 21 -30 30 -2 143 50 199 29 32 16 38 -43 18 -44 -15
-56 -15 -83 -4 -18 8 -38 12 -46 11 -22 -5 -100 -74 -107 -94 -9 -30 -61 -24
-78 10 -15 30 -44 58 -51 51 -9 -10 -18 -92 -9 -87 5 4 10 -15 11 -40 3 -52
-5 -98 -14 -89 -3 4 -14 2 -24 -4 -15 -8 -17 -6 -12 8 6 16 5 16 -10 4 -9 -7
-15 -16 -13 -20 2 -3 -9 -6 -25 -7 -28 -1 -29 -1 -9 13 11 8 20 19 20 24 0 6
-10 3 -22 -5 -30 -21 -54 -20 -77 3 -11 11 -23 16 -27 13 -4 -4 -4 1 -1 11 4
9 2 17 -3 17 -5 0 -8 -18 -6 -40 3 -35 1 -39 -12 -28 -14 11 -15 10 -9 -7 7
-19 6 -19 -7 -2 -11 14 -15 15 -20 5 -3 -7 -4 -3 -2 10 2 12 0 22 -5 22 -5 0
-9 14 -9 30 0 41 -29 40 -101 -5 -50 -31 -61 -34 -86 -25 -15 6 -45 29 -65 52
l-37 42 -65 -17 c-67 -18 -144 -21 -234 -10 -44 5 -61 13 -100 48 -47 43 -127
87 -214 120 -45 17 -76 40 -66 50 6 6 196 -77 262 -114 97 -54 146 -65 282
-58 116 5 129 8 239 52 64 25 122 44 128 42 7 -3 -39 -28 -100 -57 -97 -46
-110 -55 -96 -65 14 -10 25 -8 62 12 25 14 53 33 63 44 9 10 21 19 27 19 22 0
126 59 137 77 11 18 7 20 -47 32 -55 11 -65 10 -166 -19 -60 -17 -127 -38
-151 -46 -23 -8 -75 -14 -115 -14 -59 0 -83 5 -136 30 -35 17 -84 35 -109 41
-61 13 -125 53 -168 102 -30 36 -49 46 -127 72 -83 27 -92 32 -92 55 0 29 13
30 115 6 64 -15 66 -15 100 8 19 13 48 27 63 30 30 7 70 -1 63 -12 -2 -4 31
-8 74 -9 l78 -3 15 33 c43 90 156 124 254 76z m-516 -12 c-1 -12 -15 -9 -19 4
-3 6 1 10 8 8 6 -3 11 -8 11 -12z m39 3 c0 -5 -4 -10 -10 -10 -5 0 -10 5 -10
10 0 6 5 10 10 10 6 0 10 -4 10 -10z m580 -10 c14 -11 20 -20 13 -20 -6 0 -15
5 -18 10 -3 6 -15 10 -26 10 -11 0 -17 5 -14 10 9 14 16 12 45 -10z m3050 -20
c0 -5 -2 -10 -4 -10 -3 0 -8 5 -11 10 -3 6 -1 10 4 10 6 0 11 -4 11 -10z
m-3610 -20 c0 -5 -5 -10 -11 -10 -5 0 -7 5 -4 10 3 6 8 10 11 10 2 0 4 -4 4
-10z m585 -11 c4 -6 5 -12 2 -15 -7 -7 -37 7 -37 17 0 13 27 11 35 -2z m2745
-19 c0 -5 -4 -10 -10 -10 -5 0 -10 5 -10 10 0 6 5 10 10 10 6 0 10 -4 10 -10z
m-310 -10 c0 -5 -4 -10 -10 -10 -5 0 -10 5 -10 10 0 6 5 10 10 10 6 0 10 -4
10 -10z m373 -7 c-22 -8 -14 -25 8 -18 15 5 19 4 15 -4 -9 -14 -43 -14 -51 -1
-9 14 3 30 23 29 11 0 12 -3 5 -6z m-1315 -25 c-2 -7 5 -12 15 -12 9 1 17 -2
17 -7 0 -5 -11 -9 -25 -9 -24 0 -34 18 -18 33 10 10 13 8 11 -5z m487 2 c-3
-6 4 -10 16 -10 18 0 20 -3 11 -12 -8 -8 -15 -8 -26 2 -14 11 -14 30 0 30 3 0
2 -4 -1 -10z m-835 -15 c0 -8 -7 -15 -15 -15 -13 0 -14 3 -3 15 16 18 18 18
18 0z m490 5 c0 -5 -2 -10 -4 -10 -3 0 -8 5 -11 10 -3 6 -1 10 4 10 6 0 11 -4
11 -10z m573 3 c-21 -8 -15 -26 7 -20 11 3 18 1 14 -4 -7 -13 -41 -11 -50 2
-7 11 13 29 31 28 6 0 4 -3 -2 -6z m120 -47 c10 3 17 1 17 -6 0 -17 -43 -8
-47 10 -4 11 -2 12 5 2 5 -7 16 -10 25 -6z m66 -8 c13 -4 13 -5 0 -10 -21 -8
-43 7 -34 22 4 7 10 8 14 3 3 -6 13 -12 20 -15z m642 -4 c25 -13 30 -20 27
-47 -2 -27 -12 -37 -58 -65 -69 -41 -150 -66 -315 -96 -184 -34 -225 -40 -225
-29 0 11 65 28 168 44 59 10 72 15 72 30 0 11 5 19 11 19 5 0 8 4 4 10 -3 5 5
20 17 32 l23 23 -27 3 -28 3 32 27 c22 18 56 32 112 43 105 22 150 23 187 3z
m-2076 -14 c4 -6 -3 -9 -16 -7 -12 1 -24 -4 -27 -12 -3 -10 2 -13 22 -9 26 5
35 -5 15 -17 -13 -9 -59 3 -59 14 0 28 52 52 65 31z m140 -50 c17 -7 16 -9
-10 -9 -16 0 -37 4 -45 9 -12 8 -10 10 10 9 14 0 34 -4 45 -9z m1505 -4 c0
-11 -19 -15 -25 -6 -3 5 1 10 9 10 9 0 16 -2 16 -4z m-2849 -43 c12 -15 12
-16 -4 -10 -10 4 -23 7 -28 7 -5 0 -9 5 -9 10 0 16 26 12 41 -7z m1450 -20
c12 3 19 0 19 -9 0 -18 -4 -18 -42 2 -24 12 -28 18 -17 25 10 6 15 3 17 -7 3
-10 11 -14 23 -11z m205 10 c-1 -14 5 -17 28 -15 26 3 28 1 17 -12 -16 -20
-32 -20 -56 -2 -11 8 -16 19 -12 30 8 21 25 21 23 -1z m823 -33 c45 -11 115
-21 154 -21 65 -1 68 -2 32 -9 -22 -5 -48 -6 -59 -3 -13 3 -16 1 -11 -7 5 -8
26 -11 62 -8 43 4 51 2 41 -7 -17 -16 -98 -27 -95 -13 5 22 -82 45 -205 54
-102 8 -293 -11 -324 -31 -24 -16 -76 -109 -66 -119 8 -9 -47 -65 -82 -83 -22
-11 -48 -14 -105 -9 -42 3 -70 3 -63 0 6 -3 12 -12 12 -19 0 -23 -29 -25 -57
-2 -16 12 -49 33 -75 46 -50 25 -61 41 -29 41 11 0 27 7 35 16 14 14 18 14 38
0 29 -20 42 -20 34 0 -4 10 -1 14 6 11 7 -2 12 -11 12 -20 -2 -20 105 -34 133
-18 17 10 17 10 -3 11 -23 0 -51 26 -40 37 4 4 16 1 28 -6 16 -10 22 -10 28
-1 4 7 13 9 19 5 9 -5 9 -10 1 -20 -18 -22 9 -29 33 -8 44 38 67 69 79 107 15
48 45 62 173 83 49 8 92 17 95 20 8 8 108 -6 199 -27z m-569 10 c-20 -13 -53
-13 -45 0 3 6 18 10 33 10 21 0 24 -2 12 -10z m10 -40 c-8 -6 -24 -9 -35 -9
-15 0 -13 4 10 14 32 14 49 10 25 -5z m-194 -26 c-3 -9 -6 -20 -6 -25 0 -14
-44 -11 -66 5 -24 18 -13 31 14 15 21 -13 57 -5 47 11 -3 5 -1 10 5 10 7 0 9
-7 6 -16z m444 -184 c0 -5 -7 -10 -16 -10 -8 0 -12 -5 -9 -10 4 -6 11 -7 17
-4 7 4 8 2 4 -4 -10 -16 -31 -15 -45 1 -8 10 -7 17 1 25 15 15 48 16 48 2z
m512 -47 c14 -13 16 -18 6 -25 -7 -4 -9 -8 -4 -8 5 0 1 -9 -9 -20 -9 -10 -15
-26 -11 -35 3 -9 2 -13 -4 -10 -6 4 -13 -7 -16 -24 -4 -18 -13 -31 -21 -31
-10 0 -13 -6 -9 -17 4 -10 4 -14 0 -11 -3 4 -23 1 -42 -8 -28 -12 -37 -12 -44
-2 -5 9 -8 10 -8 1 0 -17 -42 -12 -58 7 -8 8 -11 9 -7 3 8 -16 -5 -16 -27 0
-16 13 -21 32 -19 79 1 29 49 91 85 110 54 29 151 25 188 -9z m-364 8 c10 -6
8 -10 -8 -14 -12 -3 -19 -10 -15 -16 3 -6 2 -11 -4 -11 -17 0 -23 20 -11 35
14 17 20 18 38 6z m-2383 -20 c-8 -14 14 -24 28 -14 13 9 63 9 104 -2 17 -4
22 -2 18 5 -5 8 8 10 42 8 26 -2 48 -7 47 -13 0 -5 -28 -17 -62 -27 -33 -9
-66 -19 -72 -23 -23 -14 4 -25 65 -25 52 0 68 -4 92 -24 35 -29 49 -32 135
-22 61 7 70 6 99 -15 30 -21 44 -23 144 -24 84 0 122 5 158 19 27 10 51 15 54
12 12 -12 -68 -83 -106 -95 -21 -6 -76 -11 -122 -11 -71 0 -92 4 -136 27 -49
24 -57 26 -102 15 -59 -13 -103 -3 -140 32 -21 20 -35 25 -78 24 -34 -1 -60 5
-78 16 -23 15 -26 23 -23 57 3 38 3 39 -29 39 -17 0 -39 7 -47 16 -16 16 -13
34 5 34 6 0 8 -4 4 -9z m-37 -129 c13 -15 32 -44 42 -64 34 -64 186 -156 277
-168 76 -10 82 -13 76 -44 -7 -34 41 -80 75 -71 17 4 22 2 16 -6 -5 -9 -1 -10
14 -7 16 4 22 2 22 -9 0 -13 16 -15 113 -11 183 8 403 81 418 140 4 15 17 39
28 54 28 36 26 44 -8 44 -35 0 -48 15 -25 28 13 7 6 12 -35 22 -28 6 -54 16
-57 22 -10 16 47 68 74 68 16 0 41 -16 69 -45 39 -38 44 -49 38 -72 -6 -25
-39 -101 -68 -161 -9 -17 -36 -32 -97 -54 -184 -65 -204 -70 -316 -75 -139 -7
-208 10 -256 63 -18 19 -45 48 -60 65 -16 18 -36 29 -52 29 -40 0 -176 70
-218 113 -21 20 -38 34 -38 29 0 -42 146 -139 231 -154 44 -7 64 -17 79 -36
11 -14 18 -28 15 -31 -4 -3 -10 1 -15 9 -6 8 -10 11 -10 6 0 -5 -8 -3 -17 5
-10 8 -40 21 -68 27 -59 15 -143 64 -186 108 -19 20 -36 52 -45 90 -19 72 -46
104 -88 104 -24 0 -28 3 -16 10 23 15 62 3 88 -28z m2120 19 c3 -9 0 -11 -8
-6 -7 4 -16 2 -21 -6 -11 -18 -23 -4 -15 16 7 19 37 16 44 -4z m-892 -128 c-7
-7 -56 25 -56 36 0 19 13 17 36 -6 14 -14 23 -28 20 -30z m594 42 c7 -8 21
-15 32 -15 10 0 16 -4 13 -10 -11 -17 -54 -11 -65 9 -5 11 -10 22 -10 25 0 11
18 6 30 -9z m-876 -150 c-4 -10 0 -15 12 -16 12 0 14 -3 6 -6 -7 -3 -20 -2
-28 1 -13 5 -14 9 -4 21 16 19 21 19 14 0z m1046 -17 c0 -6 -7 -5 -15 2 -13
11 -14 10 -9 -4 3 -9 13 -16 22 -16 13 0 12 -3 -4 -19 -10 -10 -23 -16 -29
-13 -5 3 -4 -1 3 -10 11 -14 10 -17 -10 -24 -13 -4 -27 -7 -33 -6 -5 1 1 -7
15 -19 22 -19 23 -22 7 -30 -9 -6 -17 -18 -18 -27 0 -14 -2 -14 -7 -2 -8 17
-42 23 -42 8 0 -5 -7 -3 -15 6 -22 22 -18 78 8 117 30 45 127 73 127 37z
m-1436 -13 c-4 -10 0 -15 12 -15 15 0 16 -2 5 -9 -18 -11 -41 -3 -41 14 0 11
6 17 27 24 1 1 0 -6 -3 -14z m220 -34 c7 -11 -14 -20 -32 -13 -11 4 -11 6 0
13 17 11 26 11 32 0z m46 -27 c0 -8 -5 -12 -10 -9 -6 4 -8 11 -5 16 9 14 15
11 15 -7z m625 -196 c4 -13 8 -25 9 -28 1 -3 10 -17 20 -32 14 -21 16 -37 11
-68 -10 -59 -22 -57 -27 5 -7 78 -21 91 -133 121 -27 7 -23 9 30 14 33 4 65 7
71 8 7 1 15 -8 19 -20z"/>
<path d="M670 1810 c0 -5 5 -10 10 -10 6 0 10 5 10 10 0 6 -4 10 -10 10 -5 0
-10 -4 -10 -10z"/>
<path d="M1428 1773 c7 -3 16 -2 19 1 4 3 -2 6 -13 5 -11 0 -14 -3 -6 -6z"/>
<path d="M1950 1775 c0 -2 9 -9 20 -15 24 -13 50 -2 29 11 -15 9 -49 12 -49 4z"/>
<path d="M700 1748 c0 -4 4 -8 9 -8 6 0 12 4 15 8 3 5 -1 9 -9 9 -8 0 -15 -4
-15 -9z"/>
<path d="M1887 1753 c-2 -4 -7 -20 -11 -34 -5 -23 -2 -28 22 -33 15 -4 35 -9
44 -12 28 -8 17 28 -18 59 -18 15 -34 24 -37 20z"/>
<path d="M891 1734 c0 -11 3 -14 6 -6 3 7 2 16 -1 19 -3 4 -6 -2 -5 -13z"/>
<path d="M911 1724 c0 -11 3 -14 6 -6 3 7 2 16 -1 19 -3 4 -6 -2 -5 -13z"/>
<path d="M1445 1730 c-16 -7 -17 -9 -3 -9 9 -1 20 4 23 9 7 11 7 11 -20 0z"/>
<path d="M1660 1736 c0 -2 7 -7 16 -10 8 -3 12 -2 9 4 -6 10 -25 14 -25 6z"/>
<path d="M930 1711 c0 -25 6 -27 13 -6 4 8 2 17 -3 20 -6 4 -10 -3 -10 -14z"/>
<path d="M1368 1631 c-72 -50 -97 -71 -59 -51 46 24 84 30 124 19 48 -13 53
-8 37 30 -20 50 -30 50 -102 2z"/>
<path d="M1855 1667 c-11 -6 -40 -14 -65 -18 -106 -17 -192 -39 -213 -54 l-22
-17 24 7 c13 4 50 2 81 -5 56 -12 59 -11 84 12 15 13 51 32 82 43 30 10 57 22
60 26 8 14 -11 18 -31 6z"/>
<path d="M610 1656 c26 -26 131 -76 159 -76 14 0 54 -14 88 -30 34 -17 77 -33
95 -35 l33 -5 -36 14 c-19 7 -53 23 -75 34 -22 11 -69 28 -105 37 -35 9 -89
30 -119 46 -30 16 -48 23 -40 15z"/>
<path d="M1538 1663 c7 -3 16 -2 19 1 4 3 -2 6 -13 5 -11 0 -14 -3 -6 -6z"/>
<path d="M1000 1650 c0 -5 5 -10 11 -10 5 0 7 5 4 10 -3 6 -8 10 -11 10 -2 0
-4 -4 -4 -10z"/>
<path d="M1947 1654 c-9 -10 2 -24 19 -24 8 0 14 7 14 15 0 15 -21 21 -33 9z"/>
<path d="M1500 1640 c8 -5 22 -10 30 -10 13 0 13 1 0 10 -8 5 -22 10 -30 10
-13 0 -13 -1 0 -10z"/>
<path d="M1770 1590 c0 -5 7 -10 15 -10 8 0 15 5 15 10 0 6 -7 10 -15 10 -8 0
-15 -4 -15 -10z"/>
<path d="M1990 1590 c-13 -9 -13 -10 0 -10 8 0 22 5 30 10 13 9 13 10 0 10 -8
0 -22 -5 -30 -10z"/>
<path d="M2220 1585 c0 -17 9 -19 28 -6 11 7 10 10 -3 15 -23 9 -25 8 -25 -9z"/>
<path d="M1885 1570 c28 -12 37 -12 30 0 -3 6 -16 10 -28 9 -21 0 -21 -1 -2
-9z"/>
<path d="M1788 1513 c7 -3 16 -2 19 1 4 3 -2 6 -13 5 -11 0 -14 -3 -6 -6z"/>
<path d="M2285 1440 c3 -5 8 -10 11 -10 2 0 4 5 4 10 0 6 -5 10 -11 10 -5 0
-7 -4 -4 -10z"/>
<path d="M1400 1430 c0 -5 4 -10 9 -10 6 0 13 5 16 10 3 6 -1 10 -9 10 -9 0
-16 -4 -16 -10z"/>
<path d="M1352 1391 c2 -7 7 -12 11 -12 12 1 9 15 -3 20 -7 2 -11 -2 -8 -8z"/>
<path d="M1278 1373 c7 -3 16 -2 19 1 4 3 -2 6 -13 5 -11 0 -14 -3 -6 -6z"/>
<path d="M2160 1339 c0 -5 5 -7 10 -4 6 3 10 8 10 11 0 2 -4 4 -10 4 -5 0 -10
-5 -10 -11z"/>
<path d="M2110 1250 c0 -5 5 -10 10 -10 6 0 10 5 10 10 0 6 -4 10 -10 10 -5 0
-10 -4 -10 -10z"/>
<path d="M4155 1670 c-4 -6 13 -10 45 -10 32 0 49 4 45 10 -3 6 -24 10 -45 10
-21 0 -42 -4 -45 -10z"/>
<path d="M4055 1625 c-38 -12 -39 -13 -10 -14 17 0 37 3 45 9 25 15 7 18 -35
5z"/>
<path d="M4155 1590 c-3 -5 -2 -10 4 -10 5 0 13 5 16 10 3 6 2 10 -4 10 -5 0
-13 -4 -16 -10z"/>
<path d="M1065 1140 c11 -5 34 -8 50 -8 29 0 29 0 5 8 -14 4 -36 8 -50 8 -23
1 -23 0 -5 -8z"/>
<path d="M1212 1105 c29 -31 61 -35 143 -20 33 6 48 2 85 -19 39 -23 56 -26
135 -25 50 0 103 6 120 13 26 11 14 12 -87 8 -113 -4 -119 -3 -170 23 -48 25
-56 27 -101 16 -69 -16 -90 -14 -123 11 l-29 21 27 -28z"/>
<path d="M1920 1090 c-11 -7 -12 -12 -3 -21 14 -14 46 -4 41 13 -6 16 -20 19
-38 8z m25 -10 c3 -5 -1 -10 -10 -10 -9 0 -13 5 -10 10 3 6 8 10 10 10 2 0 7
-4 10 -10z"/>
<path d="M1970 1059 c0 -6 6 -9 14 -6 8 3 17 1 19 -6 2 -7 8 -9 12 -5 4 4 4
11 0 17 -8 14 -45 14 -45 0z"/>
<path d="M1528 1993 c7 -3 16 -2 19 1 4 3 -2 6 -13 5 -11 0 -14 -3 -6 -6z"/>
<path d="M2039 1969 c14 -5 31 -15 38 -21 7 -6 13 -6 13 -1 0 11 -44 33 -63
32 -7 0 -1 -5 12 -10z"/>
<path d="M1823 1963 c9 -2 23 -2 30 0 6 3 -1 5 -18 5 -16 0 -22 -2 -12 -5z"/>
<path d="M3680 1955 c0 -9 5 -15 11 -13 6 2 11 8 11 13 0 5 -5 11 -11 13 -6 2
-11 -4 -11 -13z"/>
<path d="M1970 1956 c0 -2 7 -7 16 -10 8 -3 12 -2 9 4 -6 10 -25 14 -25 6z"/>
<path d="M3790 1953 c-8 -3 -19 -11 -25 -17 -5 -7 -28 -20 -50 -29 l-40 -18
40 5 c26 4 49 16 69 36 31 31 32 32 6 23z"/>
<path d="M3200 1930 c8 -5 20 -10 25 -10 6 0 3 5 -5 10 -8 5 -19 10 -25 10 -5
0 -3 -5 5 -10z"/>
<path d="M3298 1923 c7 -3 16 -2 19 1 4 3 -2 6 -13 5 -11 0 -14 -3 -6 -6z"/>
<path d="M3378 1923 c6 -2 18 -2 25 0 6 3 1 5 -13 5 -14 0 -19 -2 -12 -5z"/>
<path d="M2175 1912 c6 -5 21 -13 35 -17 17 -5 22 -4 15 3 -5 5 -21 13 -35 17
-17 5 -22 4 -15 -3z"/>
<path d="M2625 1910 c3 -5 10 -10 16 -10 5 0 9 5 9 10 0 6 -7 10 -16 10 -8 0
-12 -4 -9 -10z"/>
<path d="M2575 1880 c-13 -6 -15 -9 -5 -9 8 0 22 4 30 9 18 12 2 12 -25 0z"/>
<path d="M2320 1870 c8 -5 20 -10 25 -10 6 0 3 5 -5 10 -8 5 -19 10 -25 10 -5
0 -3 -5 5 -10z"/>
<path d="M2654 1865 c-10 -8 -14 -15 -8 -15 5 0 19 7 30 15 10 8 14 15 8 15
-5 0 -19 -7 -30 -15z"/>
<path d="M2438 1863 c23 -2 59 -2 80 0 20 2 1 4 -43 4 -44 0 -61 -2 -37 -4z"/>
<path d="M2578 1843 c7 -3 16 -2 19 1 4 3 -2 6 -13 5 -11 0 -14 -3 -6 -6z"/>
<path d="M2410 1830 c8 -5 20 -10 25 -10 6 0 3 5 -5 10 -8 5 -19 10 -25 10 -5
0 -3 -5 5 -10z"/>
<path d="M2515 1830 c3 -5 8 -10 11 -10 2 0 4 5 4 10 0 6 -5 10 -11 10 -5 0
-7 -4 -4 -10z"/>
<path d="M3678 753 c7 -3 16 -2 19 1 4 3 -2 6 -13 5 -11 0 -14 -3 -6 -6z"/>
<path d="M3585 740 c3 -5 13 -10 21 -10 8 0 12 5 9 10 -3 6 -13 10 -21 10 -8
0 -12 -4 -9 -10z"/>
<path d="M3730 740 c0 -5 7 -10 16 -10 8 0 12 5 9 10 -3 6 -10 10 -16 10 -5 0
-9 -4 -9 -10z"/>
<path d="M3560 580 c0 -5 7 -10 16 -10 8 0 12 5 9 10 -3 6 -10 10 -16 10 -5 0
-9 -4 -9 -10z"/>
<path d="M3440 510 c0 -5 7 -10 16 -10 8 0 12 5 9 10 -3 6 -10 10 -16 10 -5 0
-9 -4 -9 -10z"/>
<path d="M1490 490 c0 -5 7 -10 16 -10 8 0 12 5 9 10 -3 6 -10 10 -16 10 -5 0
-9 -4 -9 -10z"/>
<path d="M1585 480 c3 -5 8 -10 11 -10 2 0 4 5 4 10 0 6 -5 10 -11 10 -5 0 -7
-4 -4 -10z"/>
<path d="M1550 411 c0 -5 7 -11 15 -15 8 -3 15 -1 15 3 0 5 -7 11 -15 15 -8 3
-15 1 -15 -3z"/>
<path d="M2710 400 c0 -5 7 -10 15 -10 8 0 15 5 15 10 0 6 -7 10 -15 10 -8 0
-15 -4 -15 -10z"/>
<path d="M3080 390 c0 -5 7 -10 15 -10 8 0 15 5 15 10 0 6 -7 10 -15 10 -8 0
-15 -4 -15 -10z"/>
<path d="M2560 370 c0 -5 7 -10 15 -10 8 0 15 5 15 10 0 6 -7 10 -15 10 -8 0
-15 -4 -15 -10z"/>
<path d="M2850 370 c0 -5 7 -10 16 -10 8 0 12 5 9 10 -3 6 -10 10 -16 10 -5 0
-9 -4 -9 -10z"/>
<path d="M2940 370 c0 -5 7 -10 15 -10 8 0 15 5 15 10 0 6 -7 10 -15 10 -8 0
-15 -4 -15 -10z"/>
<path d="M2650 340 c0 -5 7 -10 15 -10 8 0 15 5 15 10 0 6 -7 10 -15 10 -8 0
-15 -4 -15 -10z"/>
<path d="M2440 310 c0 -5 4 -10 9 -10 6 0 13 5 16 10 3 6 -1 10 -9 10 -9 0
-16 -4 -16 -10z"/>
<path d="M2778 303 c7 -3 16 -2 19 1 4 3 -2 6 -13 5 -11 0 -14 -3 -6 -6z"/>
<path d="M2690 280 c0 -5 7 -10 16 -10 8 0 12 5 9 10 -3 6 -10 10 -16 10 -5 0
-9 -4 -9 -10z"/>
<path d="M2245 270 c-3 -5 1 -10 10 -10 9 0 13 5 10 10 -3 6 -8 10 -10 10 -2
0 -7 -4 -10 -10z"/>
<path d="M2360 270 c0 -5 7 -10 15 -10 8 0 15 5 15 10 0 6 -7 10 -15 10 -8 0
-15 -4 -15 -10z"/>
<path d="M2855 270 c-3 -5 1 -10 10 -10 9 0 13 5 10 10 -3 6 -8 10 -10 10 -2
0 -7 -4 -10 -10z"/>
</g>
</svg>
